{
  "accessors": [
    {
      "bufferView": 2,
      "componentType": 5126,
      "count": 914,
      "max": [
        12.748292922973633,
        2.591034173965454,
        15.93857479095459
      ],
      "min": [
        -21.25389862060547,
        -0.5990842580795288,
        -9.722498893737793
      ],
      "type": "VEC3"
    },
    {
      "bufferView": 2,
      "byteOffset": 10968,
      "componentType": 5126,
      "count": 914,
      "max": [
        0.8693233132362366,
        0.9999927878379822,
        0.9998518228530884
      ],
      "min": [
        -0.8311030268669128,
        -0.8990079760551453,
        -0.9999289512634277
      ],
      "type": "VEC3"
    },
    {
      "bufferView": 1,
      "componentType": 5126,
      "count": 914,
      "max": [
        0.9992129802703857,
        0.8083490133285522
      ],
      "min": [
        0.00024399999529123306,
        0.0002640000020619482
      ],
      "type": "VEC2"
    },
    {
      "bufferView": 0,
      "componentType": 5125,
      "count": 3000,
      "type": "SCALAR"
    }
  ],
  "asset": {
    "extras": {
      "author": "3DTwins (https://sketchfab.com/3dtwins)",
      "license": "CC-BY-4.0 (http://creativecommons.org/licenses/by/4.0/)",
      "source": "https://sketchfab.com/3d-models/piazza-755417f62bbc49b19f7a16e5fe9074c9",
      "title": "Piazza"
    },
    "generator": "Sketchfab-12.67.0",
    "version": "2.0"
  },
  "bufferViews": [
    {
      "buffer": 0,
      "byteLength": 12000,
      "name": "floatBufferViews",
      "target": 34963
    },
    {
      "buffer": 0,
      "byteLength": 7312,
      "byteOffset": 12000,
      "byteStride": 8,
      "name": "floatBufferViews",
      "target": 34962
    },
    {
      "buffer": 0,
      "byteLength": 21936,
      "byteOffset": 19312,
      "byteStride": 12,
      "name": "floatBufferViews",
      "target": 34962
    }
  ],
  "buffers": [
    {
      "byteLength": 41248,
      "uri": "scene.bin"
    }
  ],
  "extensionsUsed": [
    "KHR_materials_unlit"
  ],
  "images": [
    {
      "uri": "textures/tex_u1_v1_baseColor.jpeg"
    }
  ],
  "materials": [
    {
      "doubleSided": true,
      "extensions": {
        "KHR_materials_unlit": {}
      },
      "name": "tex_u1_v1",
      "pbrMetallicRoughness": {
        "baseColorTexture": {
          "index": 0
        },
        "metallicFactor": 0.0
      }
    }
  ],
  "meshes": [
    {
      "name": "Object_0",
      "primitives": [
        {
          "attributes": {
            "NORMAL": 1,
            "POSITION": 0,
            "TEXCOORD_0": 2
          },
          "indices": 3,
          "material": 0,
          "mode": 4
        }
      ]
    }
  ],
  "nodes": [
    {
      "children": [
        1
      ],
      "matrix": [
        -0.9997564554214478,
        -4.899993369227828e-18,
        0.022067608311772346,
        0.0,
        0.022067608311772346,
        -2.2199052716530504e-16,
        0.9997564554214478,
        0.0,
        0.0,
        1.0,
        2.220446049250313e-16,
        0.0,
        -8.526640892028809,
        4.214109085389536e-16,
        -1.8978660106658936,
        1.0
      ],
      "name": "Sketchfab_model"
    },
    {
      "children": [
        2
      ],
      "name": "model.obj.cleaner.materialmerger.gles"
    },
    {
      "mesh": 0,
      "name": "Object_2"
    }
  ],
  "samplers": [
    {
      "magFilter": 9729,
      "minFilter": 9987,
      "wrapS": 10497,
      "wrapT": 10497
    }
  ],
  "scene": 0,
  "scenes": [
    {
      "name": "Sketchfab_Scene",
      "nodes": [
        0
      ]
    }
  ],
  "textures": [
    {
      "sampler": 0,
      "source": 0
    }
  ]
}
