{
  "accessors": [
    {
      "bufferView": 2,
      "componentType": 5126,
      "count": 2678,
      "max": [
        0.456657350063324,
        1.0117192268371582,
        0.8258019685745239
      ],
      "min": [
        -0.4677708148956299,
        -1.0117192268371582,
        0.0005873143672943115
      ],
      "type": "VEC3"
    },
    {
      "bufferView": 2,
      "byteOffset": 32136,
      "componentType": 5126,
      "count": 2678,
      "max": [
        0.9998089075088501,
        1.0,
        1.0
      ],
      "min": [
        -0.9993157386779785,
        -1.0,
        -1.0
      ],
      "type": "VEC3"
    },
    {
      "bufferView": 3,
      "componentType": 5126,
      "count": 2678,
      "max": [
        1.0,
        0.9999994039535522,
        0.9999920129776001,
        1.0
      ],
      "min": [
        -1.0,
        -0.9999998807907104,
        -0.9999917149543762,
        -1.0
      ],
      "type": "VEC4"
    },
    {
      "bufferView": 1,
      "componentType": 5126,
      "count": 2678,
      "max": [
        0.9968920946121216,
        0.9958776831626892
      ],
      "min": [
        0.00305759534239769,
        0.003060091519728303
      ],
      "type": "VEC2"
    },
    {
      "bufferView": 1,
      "byteOffset": 21424,
      "componentType": 5126,
      "count": 2678,
      "max": [
        0.9968920946121216,
        0.9958776831626892
      ],
      "min": [
        0.00305759534239769,
        0.003060091519728303
      ],
      "type": "VEC2"
    },
    {
      "bufferView": 1,
      "byteOffset": 42848,
      "componentType": 5126,
      "count": 2678,
      "max": [
        0.9968920946121216,
        0.9958776831626892
      ],
      "min": [
        0.00305759534239769,
        0.003060091519728303
      ],
      "type": "VEC2"
    },
    {
      "bufferView": 0,
      "componentType": 5125,
      "count": 12936,
      "type": "SCALAR"
    }
  ],
  "asset": {
    "extras": {
      "author": "bretzel44 (https://sketchfab.com/bretzel44)",
      "license": "CC-BY-4.0 (http://creativecommons.org/licenses/by/4.0/)",
      "source": "https://sketchfab.com/3d-models/leather-couch-7778ddf3af584561800f2e26b1595eba",
      "title": "Leather couch"
    },
    "generator": "Sketchfab-13.74.0",
    "version": "2.0"
  },
  "bufferViews": [
    {
      "buffer": 0,
      "byteLength": 51744,
      "name": "floatBufferViews",
      "target": 34963
    },
    {
      "buffer": 0,
      "byteLength": 64272,
      "byteOffset": 51744,
      "byteStride": 8,
      "name": "floatBufferViews",
      "target": 34962
    },
    {
      "buffer": 0,
      "byteLength": 64272,
      "byteOffset": 116016,
      "byteStride": 12,
      "name": "floatBufferViews",
      "target": 34962
    },
    {
      "buffer": 0,
      "byteLength": 42848,
      "byteOffset": 180288,
      "byteStride": 16,
      "name": "floatBufferViews",
      "target": 34962
    }
  ],
  "buffers": [
    {
      "byteLength": 223136,
      "uri": "scene.bin"
    }
  ],
  "images": [
    {
      "uri": "textures/leather_sofa_baseColor.jpeg"
    },
    {
      "uri": "textures/leather_sofa_metallicRoughness.png"
    },
    {
      "uri": "textures/leather_sofa_normal.jpeg"
    }
  ],
  "materials": [
    {
      "doubleSided": true,
      "name": "leather_sofa",
      "normalTexture": {
        "index": 2,
        "scale": 0.6262876229718033
      },
      "pbrMetallicRoughness": {
        "baseColorTexture": {
          "index": 0
        },
        "metallicRoughnessTexture": {
          "index": 1
        }
      }
    }
  ],
  "meshes": [
    {
      "name": "Cube_leather_sofa_0",
      "primitives": [
        {
          "attributes": {
            "NORMAL": 1,
            "POSITION": 0,
            "TANGENT": 2,
            "TEXCOORD_0": 3,
            "TEXCOORD_1": 4,
            "TEXCOORD_2": 5
          },
          "indices": 6,
          "material": 0,
          "mode": 4
        }
      ]
    }
  ],
  "nodes": [
    {
      "children": [
        1
      ],
      "matrix": [
        1.0,
        0.0,
        0.0,
        0.0,
        0.0,
        -5.053215392444312e-16,
        1.0,
        0.0,
        0.0,
        -1.0,
        -5.053215392444312e-16,
        0.0,
        0.0,
        0.0,
        0.0,
        1.0
      ],
      "name": "Sketchfab_model"
    },
    {
      "children": [
        2
      ],
      "matrix": [
        1.0,
        0.0,
        0.0,
        0.0,
        0.0,
        -1.0,
        0.0,
        0.0,
        0.0,
        0.0,
        -1.0,
        0.0,
        0.0,
        0.0,
        0.0,
        1.0
      ],
      "name": "canap3.fbx"
    },
    {
      "children": [
        3
      ],
      "name": "RootNode"
    },
    {
      "children": [
        4
      ],
      "matrix": [
        -1.6292067939183141e-07,
        -0.9999999999999868,
        0.0,
        0.0,
        0.9999999999999868,
        -1.6292067939183141e-07,
        0.0,
        0.0,
        0.0,
        0.0,
        1.0,
        0.0,
        0.0,
        0.0,
        0.0,
        1.0
      ],
      "name": "Cube"
    },
    {
      "mesh": 0,
      "name": "Cube_leather_sofa_0"
    }
  ],
  "samplers": [
    {
      "magFilter": 9729,
      "minFilter": 9987,
      "wrapS": 10497,
      "wrapT": 10497
    }
  ],
  "scene": 0,
  "scenes": [
    {
      "name": "Sketchfab_Scene",
      "nodes": [
        0
      ]
    }
  ],
  "textures": [
    {
      "sampler": 0,
      "source": 0
    },
    {
      "sampler": 0,
      "source": 1
    },
    {
      "sampler": 0,
      "source": 2
    }
  ]
}
