{
  "accessors": [
    {
      "bufferView": 2,
      "componentType": 5126,
      "count": 3892,
      "max": [
        0.08032871037721634,
        0.11663055419921875,
        0.24265113472938538
      ],
      "min": [
        -0.08032871037721634,
        -0.15290340781211853,
        0.0006540045142173767
      ],
      "type": "VEC3"
    },
    {
      "bufferView": 2,
      "byteOffset": 46704,
      "componentType": 5126,
      "count": 3892,
      "max": [
        0.9996859431266785,
        0.9996859431266785,
        0.9899336695671082
      ],
      "min": [
        -0.999686062335968,
        -0.9996859431266785,
        -0.9954487681388855
      ],
      "type": "VEC3"
    },
    {
      "bufferView": 3,
      "componentType": 5126,
      "count": 3892,
      "max": [
        1.0,
        0.9999904036521912,
        0.9994929432868958,
        1.0
      ],
      "min": [
        -0.9999987483024597,
        -0.9999955296516418,
        -0.9994840025901794,
        1.0
      ],
      "type": "VEC4"
    },
    {
      "bufferView": 1,
      "componentType": 5126,
      "count": 3892,
      "max": [
        0.9997676610946655,
        0.999771773815155
      ],
      "min": [
        0.00022827854263596237,
        0.00022827854263596237
      ],
      "type": "VEC2"
    },
    {
      "bufferView": 1,
      "byteOffset": 31136,
      "componentType": 5126,
      "count": 3892,
      "max": [
        0.9997676610946655,
        0.999771773815155
      ],
      "min": [
        0.00022827854263596237,
        0.00022827854263596237
      ],
      "type": "VEC2"
    },
    {
      "bufferView": 1,
      "byteOffset": 62272,
      "componentType": 5126,
      "count": 3892,
      "max": [
        0.9997676610946655,
        0.999771773815155
      ],
      "min": [
        0.00022827854263596237,
        0.00022827854263596237
      ],
      "type": "VEC2"
    },
    {
      "bufferView": 0,
      "componentType": 5125,
      "count": 21480,
      "type": "SCALAR"
    }
  ],
  "asset": {
    "extras": {
      "author": "rickmaolly (https://sketchfab.com/rickmaolly)",
      "license": "CC-BY-4.0 (http://creativecommons.org/licenses/by/4.0/)",
      "source": "https://sketchfab.com/3d-models/twin-concrete-vase-935593e76af941059b81d2660973c6e9",
      "title": "Twin Concrete Vase"
    },
    "generator": "Sketchfab-15.25.0",
    "version": "2.0"
  },
  "bufferViews": [
    {
      "buffer": 0,
      "byteLength": 85920,
      "name": "floatBufferViews",
      "target": 34963
    },
    {
      "buffer": 0,
      "byteLength": 93408,
      "byteOffset": 85920,
      "byteStride": 8,
      "name": "floatBufferViews",
      "target": 34962
    },
    {
      "buffer": 0,
      "byteLength": 93408,
      "byteOffset": 179328,
      "byteStride": 12,
      "name": "floatBufferViews",
      "target": 34962
    },
    {
      "buffer": 0,
      "byteLength": 62272,
      "byteOffset": 272736,
      "byteStride": 16,
      "name": "floatBufferViews",
      "target": 34962
    }
  ],
  "buffers": [
    {
      "byteLength": 335008,
      "uri": "scene.bin"
    }
  ],
  "images": [
    {
      "uri": "textures/M_TwinVase_baseColor.jpeg"
    },
    {
      "uri": "textures/M_TwinVase_metallicRoughness.png"
    },
    {
      "uri": "textures/M_TwinVase_normal.png"
    }
  ],
  "materials": [
    {
      "doubleSided": true,
      "name": "M_TwinVase",
      "normalTexture": {
        "index": 2
      },
      "pbrMetallicRoughness": {
        "baseColorTexture": {
          "index": 0
        },
        "metallicRoughnessTexture": {
          "index": 1
        }
      }
    }
  ],
  "meshes": [
    {
      "name": "SM_Twinvase_M_TwinVase_0",
      "primitives": [
        {
          "attributes": {
            "NORMAL": 1,
            "POSITION": 0,
            "TANGENT": 2,
            "TEXCOORD_0": 3,
            "TEXCOORD_1": 4,
            "TEXCOORD_2": 5
          },
          "indices": 6,
          "material": 0,
          "mode": 4
        }
      ]
    }
  ],
  "nodes": [
    {
      "children": [
        1
      ],
      "matrix": [
        1.0,
        0.0,
        0.0,
        0.0,
        0.0,
        2.220446049250313e-16,
        -1.0,
        0.0,
        0.0,
        1.0,
        2.220446049250313e-16,
        0.0,
        0.0,
        0.0,
        0.0,
        1.0
      ],
      "name": "Sketchfab_model"
    },
    {
      "children": [
        2
      ],
      "matrix": [
        0.009999999776482582,
        0.0,
        0.0,
        0.0,
        0.0,
        0.0,
        0.009999999776482582,
        0.0,
        0.0,
        -0.009999999776482582,
        0.0,
        0.0,
        0.0,
        0.0,
        0.0,
        1.0
      ],
      "name": "SM_TwinVase.fbx"
    },
    {
      "children": [
        3
      ],
      "name": "RootNode"
    },
    {
      "children": [
        4
      ],
      "matrix": [
        100.0,
        0.0,
        0.0,
        0.0,
        0.0,
        -1.629206793918314e-05,
        -99.99999999999868,
        0.0,
        0.0,
        99.99999999999868,
        -1.629206793918314e-05,
        0.0,
        0.0,
        0.0,
        0.0,
        1.0
      ],
      "name": "SM_Twinvase"
    },
    {
      "mesh": 0,
      "name": "SM_Twinvase_M_TwinVase_0"
    }
  ],
  "samplers": [
    {
      "magFilter": 9729,
      "minFilter": 9987,
      "wrapS": 10497,
      "wrapT": 10497
    }
  ],
  "scene": 0,
  "scenes": [
    {
      "name": "Sketchfab_Scene",
      "nodes": [
        0
      ]
    }
  ],
  "textures": [
    {
      "sampler": 0,
      "source": 0
    },
    {
      "sampler": 0,
      "source": 1
    },
    {
      "sampler": 0,
      "source": 2
    }
  ]
}
